<svg width="95" height="32" viewBox="0 0 95 32" fill="none" xmlns="http://www.w3.org/2000/svg">
<g clip-path="url(#clip0_4352_4222)">
<path d="M33.5359 13.954C33.5089 14.445 33.4279 14.9327 33.2861 15.4067C32.9892 16.3819 32.4223 17.2788 31.6326 17.913C30.5494 18.7894 29.0443 19.0895 27.6878 18.9156C26.3886 18.7519 25.221 17.7732 24.4246 16.7673C24.3132 16.6275 24.0838 16.6411 23.9555 16.74C23.8172 16.8491 23.7733 17.0469 23.8644 17.2038C24.374 18.0767 25.1164 18.7724 26.0039 19.2396C26.6619 19.584 27.4043 19.7886 28.1467 19.8602C28.14 20.0205 28.14 20.1841 28.1332 20.3478C28.1163 20.7639 28.1197 21.1799 28.1163 21.5959C28.1096 22.4382 28.1028 23.2805 28.1028 24.1194C28.1028 25.7937 28.1028 27.468 28.0961 29.1424V31.5601C28.0556 31.5703 28.0151 31.5806 27.9746 31.5908C27.8464 31.6181 27.7182 31.6454 27.5899 31.6726C27.4718 31.6931 27.3571 31.7136 27.239 31.734C27.1883 31.7408 27.1344 31.7477 27.0837 31.7545C27.0837 31.7545 27.0792 31.7556 27.0702 31.7579C27.0331 31.7613 26.996 31.7681 26.9555 31.7749C26.1085 31.9148 25.2412 31.9148 24.3909 31.8227C23.5945 31.734 22.7475 31.6624 21.9916 31.3862C21.3605 31.1543 20.8138 30.6769 20.4494 30.1142C20.0546 29.5004 19.8386 28.7195 19.9365 27.9864C19.9635 27.7647 20.0951 26.9702 20.7295 26.3393C20.8712 26.1961 21.5157 25.7255 22.3931 25.5175C22.9533 25.3879 23.5303 25.3606 24.0939 25.2549C24.1816 25.2379 24.293 25.1867 24.2761 25.098C24.2626 25.0264 24.1749 25.0026 24.104 24.9957C23.9184 24.9787 23.7362 24.9685 23.5506 24.9685C23.4595 24.9651 23.3684 24.9685 23.2773 24.9685H23.2638C23.0917 24.9378 22.9196 24.9173 22.7475 24.9003C22.4134 24.8593 22.0827 24.8048 21.7553 24.7195C21.266 24.5899 20.7936 24.3956 20.3853 24.0887C19.9938 23.792 19.7002 23.4067 19.5012 22.9565C19.4067 22.7383 19.329 22.5166 19.2717 22.2916C19.2177 21.9744 19.1671 21.6232 19.1232 21.2276C19.1198 21.2208 19.1198 21.214 19.1198 21.2038C19.1097 21.0776 19.1063 20.948 19.103 20.8184C19.0996 20.6104 19.1266 20.3853 19.0692 20.1841C19.0557 20.1125 19.0321 20.0477 18.9916 19.9761C18.9309 19.8807 18.7891 19.8772 18.7284 19.9761C18.5934 20.208 18.6406 20.4945 18.6339 20.7502C18.6271 21.0094 18.6136 21.2651 18.5867 21.5243C18.5394 22.0017 18.428 22.4484 18.2357 22.8883C18.04 23.3385 17.743 23.7238 17.3516 24.0171C16.9432 24.324 16.4708 24.5217 15.9815 24.6513C15.6542 24.7366 15.3235 24.7911 14.9894 24.8286C14.8173 24.8491 14.6452 24.8696 14.4765 24.8969C14.3145 24.9241 14.1491 24.9344 13.9973 24.9992C13.9568 25.0162 13.9433 25.0537 13.9433 25.0946C13.9264 25.1833 14.0378 25.2344 14.1255 25.2515C14.6891 25.3572 15.2695 25.3845 15.8263 25.5141C16.6699 25.7153 17.301 26.1483 17.4899 26.3359C18.6946 27.5158 18.6339 29.5857 17.2807 30.6155C16.6328 31.11 15.8836 31.4169 15.1041 31.6317C14.7161 31.7408 13.869 31.9386 12.7352 31.9966H11.3078C10.7712 31.9727 10.2347 31.9045 9.72849 31.7204C9.8196 31.3691 9.86684 30.9906 9.89721 30.6087C9.93096 30.2097 9.94108 29.8073 9.96133 29.4322C10.0018 28.6445 10.0356 27.8602 10.0626 27.0759C10.1132 25.4186 10.1267 23.7579 10.1031 22.1006C10.0929 21.2617 10.0896 20.4194 9.99507 19.584C10.6936 19.335 11.3719 18.9736 11.9084 18.4552C12.0502 18.3188 12.1345 18.1893 12.2695 18.0119C12.3775 17.8755 12.4686 17.7221 12.5597 17.5686C12.6576 17.3947 12.4349 17.2379 12.2931 17.3606C12.1649 17.4731 12.0299 17.5823 11.8916 17.6778C11.8241 17.7255 11.7566 17.7698 11.6891 17.8142L11.6756 17.821C11.6756 17.821 11.6891 17.8176 11.6925 17.8176C11.6891 17.821 11.6756 17.8278 11.652 17.8346C11.6452 17.838 11.5609 17.896 11.5507 17.9028C11.5372 17.9096 11.5237 17.9199 11.5204 17.9233C11.5001 17.9369 11.4765 17.954 11.4529 17.9676C11.1627 18.1654 10.859 18.3529 10.5451 18.5098C10.4709 18.5473 10.3933 18.5814 10.3157 18.6189L10.2785 18.6326C10.2785 18.6326 10.2583 18.6428 10.2549 18.6462C10.2077 18.6633 10.1604 18.6837 10.1132 18.7008C9.94446 18.7656 9.77235 18.8235 9.60025 18.8713C9.43153 18.919 9.2628 18.9599 9.0907 18.994C9.00296 19.0111 8.91185 19.0281 8.82411 19.0418C8.80724 19.0418 8.79036 19.0418 8.77349 19.0486C8.72625 19.052 8.679 19.0588 8.63176 19.0656C8.27068 19.1032 7.90961 19.1134 7.54853 19.0929C7.46417 19.0895 7.37981 19.0827 7.29544 19.0725C7.25495 19.0691 7.21783 19.0656 7.17733 19.0622C7.15371 19.0588 7.13346 19.0554 7.10647 19.052H7.09297C6.91412 19.0213 6.73189 18.9872 6.55304 18.9463C6.18522 18.861 5.82414 18.7417 5.46982 18.5985C5.45294 18.5917 5.43945 18.5848 5.42257 18.578C5.41582 18.5746 5.40908 18.5712 5.40233 18.5712C5.39895 18.5712 5.39558 18.5678 5.38883 18.5678C5.35846 18.5541 5.32809 18.5371 5.30109 18.5269C5.21673 18.4859 5.12899 18.445 5.04463 18.4041C4.8759 18.3188 4.70717 18.2268 4.54519 18.1279C4.37984 18.0324 4.21786 17.9267 4.06263 17.8176C3.98839 17.7664 3.91415 17.7153 3.83992 17.6607C3.82304 17.6471 3.80279 17.6334 3.77917 17.6164C3.76568 17.6027 3.69481 17.5516 3.66781 17.5311C3.66444 17.5311 3.65432 17.5209 3.64757 17.5141C3.35398 17.2924 3.07727 17.0367 2.81743 16.7741C2.55759 16.5115 2.291 16.2148 2.05478 15.9079C2.05478 15.9045 2.04466 15.8943 2.03791 15.8875C2.03454 15.8841 2.03454 15.8807 2.03116 15.8772C2.00079 15.8397 1.9738 15.7988 1.94342 15.7613C1.88606 15.6795 1.82869 15.601 1.7747 15.5226C1.66334 15.3589 1.55873 15.1952 1.45749 15.0281C1.25502 14.694 1.07279 14.3495 0.907441 13.9915C0.870321 13.9096 0.833201 13.8244 0.796081 13.7425C0.789332 13.7289 0.785957 13.7187 0.782583 13.705C0.758961 13.6505 0.735339 13.5925 0.711717 13.5345C0.644227 13.3606 0.58011 13.1799 0.519369 13.0026C0.397885 12.6275 0.296649 12.2523 0.212286 11.867C0.175166 11.6829 0.14142 11.4953 0.11105 11.3078C0.100926 11.2566 0.0941769 11.2089 0.0874278 11.1611C0.0874278 11.1543 0.0840533 11.1475 0.0840533 11.1373C0.0840533 11.1373 0.0840533 11.1236 0.0806787 11.11C0.0806787 11.1066 0.0806787 11.1032 0.0773042 11.0895C0.0671806 10.9974 0.057057 10.9088 0.0469334 10.8201C-0.0273065 10.0426 -0.0138083 9.26855 0.0773042 8.49105C0.0773042 8.47741 0.0806787 8.46036 0.0840533 8.44331C0.0908024 8.39898 0.0941769 8.35806 0.104301 8.31373C0.117799 8.21143 0.134671 8.10913 0.154919 8.01023C0.188664 7.82609 0.229158 7.64536 0.276402 7.46803C0.360765 7.1168 0.468751 6.76897 0.593609 6.42797C0.623979 6.3393 0.657725 6.25405 0.69147 6.1688C0.704968 6.13129 0.721841 6.09378 0.735339 6.05627C0.738714 6.04604 0.752212 6.01876 0.755587 6.01194C0.758961 6.00512 0.758961 6.00171 0.758961 6.00171C0.833201 5.8312 0.910815 5.66411 0.991804 5.50043C1.15041 5.17306 1.32926 4.85593 1.52161 4.54902C1.61947 4.39216 1.7207 4.24212 1.82869 4.08866C1.87931 4.02046 1.92993 3.94885 1.98054 3.88065C2.00417 3.84655 2.03116 3.81586 2.05478 3.78176C2.06828 3.7613 2.08515 3.74084 2.09865 3.72379C2.32475 3.43734 2.56096 3.16454 2.81406 2.90537C3.07052 2.6428 3.34048 2.39045 3.62057 2.15516C3.68806 2.1006 3.75555 2.04604 3.82304 1.99489C3.82304 1.98807 3.83317 1.98466 3.83992 1.97784C3.88716 1.94374 3.93103 1.90964 3.97827 1.87554C4.12 1.76982 4.26848 1.66752 4.41359 1.56863C4.72742 1.36403 5.05475 1.17306 5.38883 1.00597C5.56093 0.917309 5.73978 0.821827 5.922 0.753626C5.94225 0.743396 5.97262 0.733166 5.98612 0.729756C6.02999 0.709295 6.07723 0.692245 6.12448 0.671785C6.21896 0.637684 6.31345 0.603583 6.40794 0.569483C6.78589 0.43308 7.17058 0.323958 7.56203 0.235297C7.75101 0.190966 7.94335 0.153455 8.1357 0.122765C8.22007 0.105715 8.3078 0.102305 8.39217 0.0818442C8.38879 0.0818442 8.38542 0.0818442 8.38542 0.0852543C8.41241 0.0818442 8.44616 0.0750241 8.45966 0.071614C8.51702 0.0647939 8.57439 0.0579738 8.62838 0.0545638C9.4214 -0.0306877 10.2212 -0.0238676 11.0108 0.0750241C11.0277 0.0750241 11.0412 0.0784342 11.0581 0.0784342C11.1019 0.0852543 11.1424 0.0920744 11.1829 0.0988945C11.2909 0.115945 11.3955 0.132995 11.5001 0.153455C11.6958 0.190966 11.8916 0.231887 12.0873 0.283038C12.4686 0.378519 12.8466 0.497872 13.2144 0.637684C13.2987 0.671785 13.3831 0.705885 13.4708 0.739986C13.4843 0.746806 13.4978 0.753626 13.5113 0.760446L13.6632 0.828647C13.8387 0.907079 14.0108 0.99574 14.1795 1.0844C14.5271 1.27537 14.8612 1.48679 15.1784 1.72208C15.2155 1.74936 15.2526 1.78005 15.2897 1.80733C15.2998 1.81415 15.3066 1.82097 15.3133 1.8278C15.3977 1.89259 15.4753 1.96079 15.5563 2.02899C15.7048 2.15857 15.8465 2.29497 15.9849 2.4382C16.1165 2.5746 16.2447 2.71782 16.3628 2.86786C16.3797 2.88832 16.3966 2.90878 16.4101 2.92583C16.4168 2.93606 16.4303 2.95311 16.4404 2.96334C16.4539 2.9838 16.4674 3.00086 16.4708 3.00768C16.4944 3.03837 16.5147 3.06906 16.5349 3.09975C16.815 3.45098 17.0479 3.81927 17.2368 4.20461C17.4528 4.63768 17.5945 5.06735 17.7059 5.54135C17.7869 5.88236 17.7059 6.60188 18.094 6.78602C18.3099 6.88832 18.4449 6.6428 18.4618 6.46207C18.4989 6.04604 18.4517 5.6266 18.4179 5.21739C18.3977 4.98551 18.3639 4.75022 18.3201 4.52174C18.2796 4.31714 18.1986 4.12277 18.148 3.92157C18.1243 3.83291 18.094 3.74084 18.067 3.65218C18.0433 3.58739 18.0231 3.526 17.9961 3.46462C17.9927 3.46462 17.9927 3.45439 17.9927 3.45098C17.9894 3.44757 17.9894 3.44416 17.9894 3.44075C17.9792 3.41006 17.9657 3.38278 17.9556 3.35209C17.8611 3.12362 17.7599 2.90878 17.6249 2.70077C17.581 2.63257 17.5304 2.56437 17.4832 2.49617C17.5169 2.48935 17.554 2.48594 17.5878 2.47912C17.5979 2.47912 17.6249 2.4723 17.6384 2.4723C17.662 2.46889 17.6823 2.46548 17.7059 2.46207C17.8274 2.44843 17.9455 2.43138 18.067 2.41092C18.0973 2.40751 18.1277 2.4041 18.1581 2.39727C18.1615 2.39727 18.1682 2.39727 18.175 2.39386C18.2256 2.38704 18.2762 2.38363 18.3234 2.37681C18.5327 2.35635 18.7419 2.34271 18.9511 2.3393C19.1671 2.33589 19.3864 2.34271 19.599 2.35976C19.7002 2.36999 19.7981 2.37681 19.896 2.38704C19.9466 2.39386 19.9938 2.39727 20.0445 2.4041C20.0647 2.40751 20.0782 2.40751 20.0816 2.40751C20.1018 2.41092 20.1254 2.41774 20.1457 2.42115C20.5608 2.48594 20.9691 2.58824 21.3639 2.73146C21.4584 2.76556 21.5495 2.79966 21.6406 2.83717C21.6507 2.84058 21.6609 2.8474 21.671 2.85081C21.6811 2.85422 21.7081 2.86786 21.7182 2.87127C21.7688 2.89514 21.8195 2.91901 21.8701 2.94288C22.059 3.03155 22.2413 3.13044 22.4201 3.23956C22.5922 3.34186 22.7576 3.45098 22.9162 3.57034C22.9533 3.59762 22.9904 3.6249 23.0275 3.65218C23.041 3.66582 23.0545 3.67264 23.068 3.68628C23.149 3.75107 23.2266 3.81586 23.3009 3.88406C23.5978 4.14323 23.8678 4.42967 24.1141 4.73999C24.1344 4.76386 24.1614 4.78773 24.1783 4.81842C24.1783 4.82183 24.185 4.82865 24.1884 4.83547C24.2019 4.85252 24.2154 4.86957 24.2289 4.89003C24.2896 4.97187 24.3504 5.05712 24.4077 5.14237C24.5123 5.30265 24.617 5.46974 24.7081 5.64024C24.816 5.83121 24.9105 6.02558 24.9983 6.22677C25.005 6.24382 25.0151 6.26087 25.0219 6.28133C25.0286 6.29156 25.0286 6.29838 25.032 6.3052C25.0489 6.35294 25.0691 6.40068 25.086 6.44843C25.1265 6.55073 25.1636 6.65303 25.194 6.75533C25.2649 6.96675 25.3222 7.185 25.3695 7.40324C25.3931 7.50895 25.4133 7.61467 25.4302 7.72379C25.4336 7.74084 25.437 7.75789 25.437 7.77835C25.1434 7.92498 24.8565 8.09207 24.5832 8.27281C23.5405 8.97187 22.6631 9.87895 22.1738 11.0554C22.1468 11.1236 22.1198 11.1986 22.1468 11.2634C22.1805 11.3555 22.302 11.3862 22.3931 11.3555C22.4842 11.3214 22.5551 11.2464 22.6192 11.1748C23.8408 9.84144 25.3627 8.73658 27.1074 8.28986C28.1062 8.0341 29.1793 8.00341 30.1546 8.3376C32.4324 9.1185 33.6506 11.6283 33.5359 13.9506V13.954Z" fill="#FAF0E6"/>
<path d="M24.8734 21.7391C23.2333 21.9164 23.0882 22.063 22.9128 23.7203C22.7373 22.063 22.5922 21.9164 20.9521 21.7391C22.5922 21.5618 22.7373 21.4151 22.9128 19.7578C23.0882 21.4151 23.2333 21.5618 24.8734 21.7391Z" fill="#FAF0E6"/>
<path d="M32.1956 16.856C32.1956 16.856 32.1855 16.873 32.1788 16.8866C32.1754 16.8934 32.172 16.8968 32.1687 16.9036C32.1687 16.9036 32.1653 16.9104 32.1619 16.9104C32.1619 16.9104 32.1585 16.9138 32.1552 16.9173C32.1552 16.9173 32.1518 16.9207 32.1484 16.9241C32.1788 16.8764 32.1956 16.856 32.199 16.8526L32.1956 16.856Z" fill="#FAF0E6"/>
<path d="M27.9268 18.7518H27.92C27.9032 18.7518 27.8897 18.7451 27.8729 18.7451C27.8493 18.7383 27.8459 18.7316 27.9301 18.7518H27.9268Z" fill="#FAF0E6"/>
<path d="M33.1036 12.6241C33.0935 12.5934 33.0868 12.59 33.1137 12.6853C33.1137 12.6853 33.1137 12.6853 33.1137 12.6819C33.1103 12.6615 33.1036 12.6445 33.1036 12.6241Z" fill="#FAF0E6"/>
<path d="M30.2485 8.46699C30.1912 8.45351 30.1743 8.44678 30.1811 8.44678C30.2013 8.45351 30.2249 8.46025 30.2451 8.46699H30.2485Z" fill="#FAF0E6"/>
<path d="M30.3091 18.3735C30.3091 18.3735 30.3058 18.3735 30.3024 18.3768C30.3024 18.3768 30.299 18.3768 30.2956 18.3802C30.2956 18.3802 30.2923 18.3802 30.2889 18.3836C30.2754 18.3903 30.2586 18.4004 30.2451 18.4038C30.2822 18.3836 30.299 18.3735 30.3058 18.3735H30.3091Z" fill="#FAF0E6"/>
<path d="M32.796 15.7954C32.796 15.7954 32.7859 15.826 32.7792 15.8431C32.7792 15.8499 32.7725 15.8567 32.7725 15.8635C32.7725 15.8635 32.7725 15.8669 32.7725 15.8703C32.7893 15.8226 32.796 15.8022 32.8028 15.7954H32.796Z" fill="#FAF0E6"/>
<path d="M46.2307 13.5243C45.9776 13.4868 45.7212 13.5311 45.4613 13.6539C45.1543 13.8141 44.8337 13.9267 44.4996 13.9915C44.1655 14.0528 43.8348 14.0835 43.5007 14.0835C42.8967 14.0835 42.3331 13.9949 41.8168 13.8141C41.2972 13.6334 40.8484 13.3572 40.467 12.9821C40.0857 12.607 39.7854 12.1398 39.5694 11.5805C39.3534 11.0179 39.2454 10.3597 39.2454 9.5993C39.2454 8.95139 39.3399 8.35804 39.5323 7.82266C39.7246 7.28728 40.0047 6.82351 40.3759 6.43136C40.7471 6.0392 41.1926 5.7357 41.719 5.52428C42.242 5.31286 42.8393 5.20714 43.5041 5.20714C43.8618 5.20714 44.2026 5.24466 44.53 5.31968C44.8573 5.3947 45.1678 5.50041 45.4647 5.63681C45.7246 5.76298 45.981 5.81072 46.2341 5.78685C46.4872 5.76298 46.6931 5.63681 46.855 5.41175C47.0879 5.1253 47.179 4.80817 47.1216 4.45693C47.0642 4.1057 46.8787 3.85335 46.5581 3.68967C46.1025 3.45437 45.6132 3.27364 45.0969 3.14747C44.5772 3.0213 44.0474 2.95992 43.5041 2.95992C42.5424 2.95992 41.6549 3.1236 40.8382 3.45437C40.025 3.78515 39.3163 4.24551 38.719 4.83886C38.1217 5.43221 37.6594 6.13127 37.3321 6.94287C37.0048 7.75446 36.8428 8.63766 36.8428 9.5993C36.8428 10.7076 37.0216 11.6828 37.3793 12.5251C37.737 13.3674 38.2263 14.0665 38.8506 14.6291C39.4749 15.1918 40.1836 15.6146 40.98 15.9011C41.7763 16.1875 42.6166 16.3308 43.5075 16.3308C43.8652 16.3308 44.2161 16.3035 44.5637 16.2455C44.9079 16.1875 45.2521 16.1091 45.5896 16.0034C45.927 15.8977 46.2577 15.7647 46.5783 15.601C46.8854 15.451 47.0744 15.2123 47.1419 14.8815C47.2094 14.5507 47.1216 14.2302 46.8753 13.9198C46.7032 13.6948 46.4906 13.5652 46.2375 13.5277L46.2307 13.5243Z" fill="#FAF0E6"/>
<path d="M55.9088 6.61549C55.1496 6.17218 54.3026 5.95053 53.3644 5.95053C52.4263 5.95053 51.5793 6.17218 50.82 6.61549C50.0608 7.0588 49.4567 7.6692 49.0079 8.44669C48.5591 9.2276 48.333 10.1279 48.333 11.1475C48.333 12.1671 48.5591 13.0707 49.0079 13.8482C49.4567 14.6291 50.0641 15.2361 50.82 15.6726C51.5793 16.1091 52.4263 16.3273 53.3644 16.3273C54.3026 16.3273 55.1496 16.1091 55.9088 15.6726C56.6681 15.2361 57.2722 14.6291 57.721 13.8482C58.1698 13.0707 58.3959 12.1671 58.3959 11.1475C58.3959 10.1279 58.1698 9.22419 57.721 8.44669C57.2722 7.6692 56.6681 7.05539 55.9088 6.61549ZM55.7975 12.7877C55.5444 13.2549 55.2069 13.6198 54.7784 13.8823C54.3498 14.1449 53.8808 14.2745 53.3644 14.2745C52.8481 14.2745 52.3757 14.1449 51.9505 13.8823C51.5253 13.6198 51.1845 13.2549 50.9314 12.7877C50.6783 12.3205 50.5535 11.7749 50.5535 11.1509C50.5535 10.5268 50.6783 9.96417 50.9314 9.49699C51.1845 9.02981 51.5219 8.66494 51.9505 8.40236C52.3791 8.13979 52.8481 8.01021 53.3644 8.01021C53.8808 8.01021 54.3532 8.13979 54.7784 8.40236C55.2036 8.66494 55.5444 9.02981 55.7975 9.49699C56.0506 9.96417 56.1754 10.5166 56.1754 11.1509C56.1754 11.7851 56.0472 12.3205 55.7975 12.7877Z" fill="#FAF0E6"/>
<path d="M65.6244 16.0955C66.0259 15.9386 66.3735 15.751 66.6705 15.526C66.8898 15.3589 67.0754 15.1918 67.2273 15.0213C67.2306 15.3384 67.3352 15.601 67.5411 15.8158C67.7503 16.0341 68.0169 16.1432 68.3375 16.1432C68.6581 16.1432 68.9247 16.0341 69.1339 15.8158C69.3431 15.5976 69.4477 15.3282 69.4477 15.0008V3.44755C69.4477 3.10996 69.3431 2.83715 69.1339 2.62573C68.9247 2.41431 68.6581 2.30859 68.3375 2.30859C68.0169 2.30859 67.7503 2.41772 67.5411 2.63596C67.3319 2.8542 67.2273 3.12701 67.2273 3.45096V7.1236C67.1193 7.0213 67.0012 6.91899 66.8662 6.81669C66.5389 6.56776 66.1542 6.36315 65.7087 6.19947C65.2633 6.0392 64.7773 5.95736 64.2475 5.95736C63.4208 5.95736 62.6683 6.17901 61.99 6.62232C61.3117 7.06563 60.7718 7.67603 60.3702 8.45352C59.9686 9.23443 59.7695 10.1347 59.7695 11.1543C59.7695 12.1739 59.9686 13.0571 60.3702 13.838C60.7718 14.6189 61.3184 15.2293 62.0069 15.6692C62.6986 16.1125 63.468 16.3342 64.3184 16.3342C64.7875 16.3342 65.2228 16.2557 65.6244 16.0989V16.0955ZM62.2363 12.74C62.0068 12.266 61.8955 11.7374 61.8955 11.1509C61.8955 10.5643 62.0102 10.0153 62.2363 9.54133C62.4658 9.06733 62.783 8.69223 63.1879 8.41942C63.5963 8.14662 64.0653 8.0068 64.5951 8.0068C65.1249 8.0068 65.6142 8.14321 66.0192 8.41942C66.4275 8.69223 66.7447 9.06733 66.9708 9.54133C67.2003 10.0153 67.3116 10.5507 67.3116 11.1509C67.3116 11.751 67.1969 12.266 66.9708 12.74C66.7413 13.214 66.4241 13.5891 66.0192 13.8619C65.6109 14.1347 65.1384 14.2745 64.5951 14.2745C64.0518 14.2745 63.5963 14.1381 63.1879 13.8619C62.7796 13.5891 62.4624 13.214 62.2363 12.74Z" fill="#FAF0E6"/>
<path d="M78.1981 16.0204C78.7785 15.8158 79.2273 15.5736 79.5479 15.3008C79.8921 15.028 80.0676 14.7211 80.0676 14.3835C80.0676 14.1346 79.9765 13.9163 79.801 13.7288C79.6221 13.5412 79.396 13.4492 79.1261 13.4492C78.927 13.4492 78.7178 13.5037 78.495 13.6163C78.3601 13.6913 78.2082 13.7834 78.0429 13.8857C77.8775 13.9914 77.6582 14.0834 77.3848 14.1585C77.1149 14.2335 76.7504 14.271 76.2915 14.271C75.7988 14.271 75.3331 14.1482 74.8944 13.9061C74.4557 13.664 74.098 13.3094 73.8213 12.8388C73.6593 12.566 73.5513 12.2556 73.4838 11.9146H79.585C79.882 11.9146 80.1418 11.8226 80.3612 11.635C80.5839 11.4475 80.6986 11.2053 80.7121 10.9053C80.7121 10.2335 80.5839 9.5958 80.3342 8.99904C80.0811 8.40228 79.7402 7.87372 79.3083 7.42018C78.8764 6.96665 78.3803 6.60518 77.8201 6.34601C77.26 6.08344 76.6627 5.95386 76.035 5.95386C75.2217 5.95386 74.449 6.16528 73.7234 6.58813C72.9945 7.01098 72.4074 7.62138 71.9552 8.41251C71.5064 9.20364 71.2803 10.1619 71.2803 11.2838C71.2803 12.2454 71.4861 13.1048 71.9012 13.8652C72.3129 14.6256 72.9068 15.2292 73.6762 15.6691C74.4456 16.1124 75.3567 16.3341 76.4062 16.3341C77.0237 16.3341 77.621 16.2318 78.2015 16.0272L78.1981 16.0204ZM74.1655 8.66145C74.3983 8.42615 74.6784 8.25565 74.999 8.15676C75.3196 8.05786 75.6638 8.00671 76.035 8.00671C76.4062 8.00671 76.7774 8.09196 77.1182 8.25906C77.4557 8.42615 77.7425 8.65462 77.9686 8.94107C78.1981 9.22751 78.3229 9.55147 78.3466 9.91294V10.0425H73.5007C73.5311 9.88907 73.5648 9.74243 73.6087 9.61285C73.7437 9.21388 73.9293 8.89674 74.1655 8.65804V8.66145Z" fill="#FAF0E6"/>
<path d="M88.0409 4.3818L89.8902 5.37413C89.9644 5.41164 90.0387 5.43892 90.1129 5.45938C90.1872 5.47643 90.2547 5.48666 90.3154 5.48666C90.5482 5.48666 90.7372 5.42528 90.8789 5.29911C91.0207 5.17294 91.0915 5.01266 91.0915 4.81147C91.0915 4.63756 91.0038 4.46705 90.8317 4.30678L89.2389 2.88479C89.1141 2.77225 88.9757 2.67677 88.8238 2.59493C88.6686 2.51309 88.5066 2.47217 88.3345 2.47217C88.1253 2.47217 87.9093 2.55401 87.6866 2.71428C87.4639 2.87797 87.3525 3.09962 87.3525 3.38606C87.3525 3.57362 87.4099 3.75435 87.528 3.92826C87.6461 4.10218 87.8149 4.25222 88.0376 4.37839L88.0409 4.3818Z" fill="#FAF0E6"/>
<path d="M94.6856 6.27108C94.4764 6.05966 94.2098 5.95395 93.8892 5.95395C93.5687 5.95395 93.3021 6.06307 93.0928 6.28132C92.8836 6.49956 92.779 6.76895 92.779 7.09291V7.12019C92.671 7.01789 92.5529 6.91559 92.4179 6.81328C92.0906 6.56435 91.7059 6.35975 91.2605 6.19606C90.815 6.03579 90.3291 5.95395 89.7993 5.95395C88.9725 5.95395 88.22 6.1756 87.5417 6.61891C86.8635 7.06222 86.3235 7.67262 85.922 8.45011C85.5204 9.23102 85.3213 10.1313 85.3213 11.1509C85.3213 12.1705 85.5204 13.0537 85.922 13.8346C86.3235 14.6155 86.8702 15.2259 87.5586 15.6658C88.2504 16.1091 89.0198 16.3308 89.8702 16.3308C90.3392 16.3308 90.7745 16.2523 91.1761 16.0955C91.5777 15.9386 91.9253 15.7511 92.2222 15.526C92.4416 15.3589 92.6272 15.1918 92.779 15.0213C92.7824 15.3384 92.887 15.601 93.0928 15.8158C93.3021 16.0341 93.5687 16.1432 93.8892 16.1432C94.2098 16.1432 94.4764 16.0341 94.6856 15.8158C94.8949 15.5976 94.9995 15.3282 94.9995 15.0008V7.0895C94.9995 6.7519 94.8949 6.4791 94.6856 6.26767V6.27108ZM92.5293 12.74C92.2998 13.214 91.9826 13.5891 91.5777 13.8619C91.1694 14.1347 90.6969 14.2745 90.1536 14.2745C89.6103 14.2745 89.1548 14.1381 88.7464 13.8619C88.3381 13.5891 88.0209 13.214 87.7948 12.74C87.5654 12.266 87.454 11.7374 87.454 11.1509C87.454 10.5644 87.5687 10.0153 87.7948 9.54133C88.0243 9.06733 88.3415 8.69223 88.7464 8.41942C89.1548 8.14662 89.6238 8.00681 90.1536 8.00681C90.6834 8.00681 91.1727 8.14321 91.5777 8.41942C91.986 8.69223 92.3032 9.06733 92.5293 9.54133C92.7588 10.0153 92.8701 10.5507 92.8701 11.1509C92.8701 11.7511 92.7554 12.266 92.5293 12.74Z" fill="#FAF0E6"/>
<path d="M46.2307 28.6036C45.9776 28.5661 45.7212 28.6104 45.4613 28.7331C45.1543 28.8968 44.8337 29.006 44.4996 29.0707C44.1655 29.1321 43.8348 29.1628 43.5007 29.1628C42.8967 29.1628 42.3331 29.0742 41.8168 28.8934C41.2972 28.7127 40.8484 28.4365 40.467 28.0614C40.0857 27.6863 39.7854 27.2191 39.5694 26.6598C39.3534 26.0972 39.2454 25.439 39.2454 24.6786C39.2454 24.0307 39.3399 23.4373 39.5323 22.9019C39.7246 22.3666 40.0047 21.9028 40.3759 21.5106C40.7471 21.1185 41.1926 20.815 41.719 20.6036C42.242 20.3921 42.8393 20.2864 43.5041 20.2864C43.8618 20.2864 44.2026 20.3239 44.53 20.399C44.8573 20.474 45.1678 20.5797 45.4647 20.7161C45.7246 20.8423 45.981 20.89 46.2341 20.8661C46.4872 20.8423 46.6931 20.7161 46.855 20.491C47.0879 20.2046 47.179 19.8875 47.1216 19.5362C47.0642 19.185 46.8787 18.9326 46.5581 18.769C46.1025 18.5337 45.6132 18.3529 45.0969 18.2268C44.5772 18.1006 44.0474 18.0392 43.5041 18.0392C42.5424 18.0392 41.6549 18.2029 40.8382 18.5337C40.025 18.8644 39.3163 19.3248 38.719 19.9181C38.1217 20.5115 37.6594 21.2106 37.3321 22.0222C37.0048 22.8337 36.8428 23.717 36.8428 24.6786C36.8428 25.7869 37.0216 26.7621 37.3793 27.6044C37.737 28.4467 38.2263 29.1458 38.8506 29.7084C39.4749 30.2677 40.1836 30.6939 40.98 30.9804C41.7763 31.2668 42.6166 31.41 43.5075 31.41C43.8652 31.41 44.2161 31.3828 44.5637 31.3248C44.9079 31.2668 45.2521 31.1884 45.5896 31.0827C45.927 30.977 46.2577 30.844 46.5783 30.6803C46.8854 30.5302 47.0744 30.2915 47.1419 29.9608C47.2094 29.63 47.1216 29.3094 46.8753 28.9991C46.7032 28.7741 46.4906 28.6445 46.2375 28.607L46.2307 28.6036Z" fill="#FAF0E6"/>
<path d="M55.8073 21.2173C55.4867 21.2173 55.2201 21.3264 55.0109 21.5447C54.8017 21.7629 54.6971 22.0357 54.6971 22.3597V27.1099C54.6971 27.8703 54.5317 28.433 54.1977 28.8013C53.8636 29.1695 53.3574 29.3537 52.6791 29.3537C52.0008 29.3537 51.5149 29.1695 51.1808 28.8013C50.8467 28.433 50.6814 27.8703 50.6814 27.1099V22.3597C50.6814 22.0357 50.5768 21.7629 50.3675 21.5447C50.1583 21.3264 49.8917 21.2173 49.5712 21.2173C49.2506 21.2173 48.984 21.3264 48.7748 21.5447C48.5655 21.7629 48.4609 22.0357 48.4609 22.3597V27.1099C48.4609 28.433 48.822 29.4799 49.5442 30.2505C50.2663 31.0246 51.3124 31.41 52.6791 31.41C54.0458 31.41 55.0953 31.0246 55.8242 30.2505C56.5531 29.4764 56.9175 28.4296 56.9175 27.1099V22.3597C56.9175 22.0357 56.8129 21.7629 56.6037 21.5447C56.3945 21.3264 56.1279 21.2173 55.8073 21.2173Z" fill="#FAF0E6"/>
<path d="M59.8602 21.2173C59.5396 21.2173 59.2731 21.3264 59.0638 21.5447C58.8546 21.7629 58.75 22.0357 58.75 22.3597V30.0834C58.75 30.4074 58.8546 30.6802 59.0638 30.895C59.2731 31.1133 59.5396 31.2224 59.8602 31.2224C60.1808 31.2224 60.4474 31.1133 60.6566 30.895C60.8658 30.6768 60.9704 30.4074 60.9704 30.0834V22.3597C60.9704 22.0357 60.8658 21.7629 60.6566 21.5447C60.4474 21.3264 60.1808 21.2173 59.8602 21.2173Z" fill="#FAF0E6"/>
<path d="M59.861 17.7766C59.4661 17.7766 59.1725 17.8414 58.9802 17.9744C58.7878 18.104 58.6934 18.3529 58.6934 18.7144V19.069C58.6934 19.4168 58.7777 19.6624 58.9532 19.7988C59.1253 19.9352 59.4223 20.0034 59.8407 20.0034C60.2591 20.0034 60.5629 19.9386 60.7485 19.8056C60.9341 19.676 61.0252 19.4271 61.0252 19.0656V18.711C61.0252 18.3631 60.9374 18.1176 60.7653 17.9812C60.5932 17.8448 60.2895 17.7766 59.8576 17.7766H59.861Z" fill="#FAF0E6"/>
<path d="M68.796 26.1892C68.4754 25.9641 68.1245 25.7834 67.7398 25.647C67.3551 25.5106 66.9805 25.3912 66.6127 25.2924C66.255 25.1935 65.9175 25.0912 65.6037 24.982C65.2899 24.8763 65.0402 24.7399 64.8546 24.5694C64.669 24.4023 64.5778 24.1739 64.5778 23.8874C64.5778 23.5771 64.6588 23.3486 64.8174 23.2054C64.9794 23.0622 65.165 22.9701 65.381 22.9258C65.597 22.8814 65.7961 22.861 65.9817 22.861C66.4372 22.861 66.8422 22.9428 67.1931 23.1031C67.5441 23.2668 67.8242 23.485 68.0367 23.7578C68.1954 23.9079 68.4012 23.9931 68.6475 24.0102C68.8939 24.0306 69.1099 23.9624 69.2955 23.8124C69.5553 23.601 69.6734 23.3623 69.6464 23.1031C69.6194 22.8439 69.5418 22.6155 69.4068 22.4313C69.147 22.0937 68.8264 21.8243 68.4451 21.6163C68.0637 21.4117 67.6622 21.2617 67.2437 21.1662C66.8253 21.0741 66.4237 21.0264 66.0424 21.0264C65.4384 21.0264 64.8613 21.1457 64.3113 21.381C63.7612 21.6197 63.3158 21.9539 62.9682 22.3904C62.624 22.8269 62.4485 23.3554 62.4485 23.9795C62.4485 24.5285 62.5531 24.982 62.7623 25.3435C62.9716 25.705 63.2449 25.9948 63.5756 26.2131C63.9097 26.4313 64.2741 26.6086 64.6757 26.745C65.0773 26.8814 65.4687 27.0076 65.85 27.1201C66.2212 27.219 66.5553 27.3247 66.859 27.4373C67.1627 27.5498 67.4057 27.6862 67.5913 27.8499C67.7769 28.0136 67.868 28.2318 67.868 28.5046C67.868 28.8286 67.7837 29.0673 67.6183 29.2241C67.453 29.381 67.2572 29.4799 67.0345 29.5242C66.8118 29.5686 66.6093 29.5958 66.4237 29.6095C65.8332 29.6095 65.3371 29.5106 64.9423 29.3094C64.5475 29.1116 64.1695 28.8286 63.8118 28.4671C63.6026 28.2557 63.3866 28.1398 63.1639 28.1227C62.9412 28.1057 62.732 28.1568 62.5363 28.283C62.2292 28.4808 62.0672 28.7195 62.0537 28.9923C62.0402 29.2651 62.0976 29.4901 62.219 29.664C62.7016 30.312 63.3056 30.7655 64.0312 31.0213C64.7601 31.277 65.4856 31.4032 66.2145 31.4032C66.7949 31.4032 67.3618 31.2872 67.9153 31.0588C68.4721 30.8269 68.9344 30.4893 69.3022 30.0392C69.6734 29.589 69.859 29.0468 69.859 28.4126C69.859 27.8635 69.7611 27.4134 69.562 27.0554C69.3629 26.7007 69.1065 26.4109 68.7859 26.1858L68.796 26.1892Z" fill="#FAF0E6"/>
<path d="M72.2589 17.7766C71.8641 17.7766 71.5705 17.8414 71.3816 17.9744C71.1892 18.104 71.0947 18.3529 71.0947 18.7144V19.069C71.0947 19.4168 71.1825 19.6624 71.3546 19.7988C71.5267 19.9352 71.8236 20.0034 72.2421 20.0034C72.6605 20.0034 72.9642 19.9386 73.1498 19.8056C73.3354 19.676 73.4265 19.4271 73.4265 19.0656V18.711C73.4265 18.3631 73.3388 18.1176 73.1667 17.9812C72.9946 17.8448 72.6909 17.7766 72.2589 17.7766Z" fill="#FAF0E6"/>
<path d="M72.2587 21.2174C71.9381 21.2174 71.6715 21.3265 71.4623 21.5447C71.2531 21.763 71.1484 22.0358 71.1484 22.3597V30.0835C71.1484 30.4075 71.2531 30.6803 71.4623 30.8951C71.6715 31.1134 71.9381 31.2225 72.2587 31.2225C72.5792 31.2225 72.8458 31.1134 73.0551 30.8951C73.2643 30.6769 73.3689 30.4075 73.3689 30.0835V22.3597C73.3689 22.0358 73.2643 21.763 73.0551 21.5447C72.8458 21.3265 72.5792 21.2174 72.2587 21.2174Z" fill="#FAF0E6"/>
<path d="M82.5741 21.6095C82.0983 21.2242 81.4065 21.0298 80.492 21.0298C80.0736 21.0298 79.6855 21.0946 79.3278 21.2276C78.9701 21.3572 78.6495 21.5311 78.366 21.7425C78.0826 21.9539 77.8362 22.1824 77.627 22.4245C77.5494 22.5132 77.4887 22.5984 77.4245 22.6837V22.3597C77.4245 22.0358 77.3199 21.7629 77.1107 21.5447C76.9015 21.3265 76.6349 21.2173 76.3143 21.2173C75.9937 21.2173 75.7272 21.3265 75.5179 21.5447C75.3087 21.7629 75.2041 22.0358 75.2041 22.3597V30.0835C75.2041 30.4074 75.3087 30.6803 75.5179 30.8951C75.7272 31.1133 75.9937 31.2225 76.3143 31.2225C76.6349 31.2225 76.9015 31.1133 77.1107 30.8951C77.3199 30.6768 77.4245 30.4074 77.4245 30.0835V25.2958C77.4245 24.8832 77.5123 24.5149 77.6911 24.1841C77.87 23.8533 78.1298 23.5873 78.4673 23.3895C78.8047 23.1918 79.2232 23.0895 79.7159 23.0895C80.2085 23.0895 80.6101 23.1884 80.8835 23.3895C81.1534 23.5907 81.3424 23.8533 81.447 24.1841C81.5516 24.5149 81.6056 24.8866 81.6056 25.2958V30.0835C81.6056 30.4074 81.7102 30.6803 81.9194 30.8951C82.1287 31.1133 82.3952 31.2225 82.7158 31.2225C83.0364 31.2225 83.303 31.1133 83.5122 30.8951C83.7214 30.6768 83.826 30.4074 83.826 30.0835V25.2958C83.826 24.5115 83.7349 23.7953 83.5595 23.1543C83.3806 22.5132 83.0533 21.9982 82.5775 21.6129L82.5741 21.6095Z" fill="#FAF0E6"/>
<path d="M93.3532 22.4961C92.9213 22.0426 92.4252 21.6811 91.8651 21.4219C91.3049 21.1594 90.7076 21.0298 90.0799 21.0298C89.2667 21.0298 88.4939 21.2412 87.7684 21.6641C87.0395 22.0869 86.4523 22.6973 86.0001 23.4884C85.5513 24.2796 85.3252 25.2378 85.3252 26.3597C85.3252 27.3213 85.531 28.1807 85.9461 28.9411C86.3578 29.7016 86.9517 30.3052 87.7211 30.745C88.4905 31.1884 89.4016 31.41 90.4511 31.41C91.0687 31.41 91.6659 31.3077 92.2464 31.0997C92.8268 30.8951 93.2756 30.653 93.5962 30.3802C93.9404 30.1074 94.1159 29.8005 94.1159 29.4629C94.1159 29.2139 94.0247 28.9957 93.8493 28.8081C93.6704 28.6206 93.4443 28.5285 93.1744 28.5285C92.9753 28.5285 92.766 28.5865 92.5433 28.6956C92.4083 28.7706 92.2565 28.8627 92.0911 28.9684C91.9258 29.0741 91.7064 29.1662 91.4331 29.2378C91.1631 29.3128 90.7987 29.3503 90.3398 29.3503C89.8471 29.3503 89.3814 29.2276 88.9427 28.9855C88.504 28.7433 88.1463 28.3887 87.8696 27.9181C87.7076 27.6453 87.5996 27.335 87.5321 26.994H93.6333C93.9303 26.994 94.1901 26.9019 94.4094 26.7144C94.6322 26.5268 94.7469 26.2847 94.7604 25.9846C94.7604 25.3128 94.6322 24.6751 94.3825 24.0784C94.1294 23.4816 93.7885 22.9531 93.3566 22.4995L93.3532 22.4961ZM88.2071 23.7408C88.4399 23.5055 88.72 23.335 89.0406 23.2361C89.3611 23.1372 89.7053 23.0861 90.0765 23.0861C90.4477 23.0861 90.8189 23.1713 91.1598 23.3384C91.4972 23.5055 91.7841 23.734 92.0102 24.0204C92.2396 24.3069 92.3645 24.6308 92.3881 24.9923V25.1219H87.5423C87.5726 24.9684 87.6064 24.8218 87.6502 24.6922C87.7852 24.2932 87.9708 23.9761 88.2071 23.7374V23.7408Z" fill="#FAF0E6"/>
</g>
<defs>
<clipPath id="clip0_4352_4222">
<rect width="95" height="32" fill="white"/>
</clipPath>
</defs>
</svg>
