<svg width="95" height="32" viewBox="0 0 95 32" fill="none" xmlns="http://www.w3.org/2000/svg">
<g clip-path="url(#clip0_4352_4189)">
<path d="M33.5363 13.954C33.5093 14.4451 33.4284 14.9327 33.2866 15.4067C32.9897 16.382 32.4227 17.2788 31.6331 17.9131C30.5499 18.7895 29.0448 19.0896 27.6883 18.9157C26.3891 18.752 25.2215 17.7733 24.4251 16.7673C24.3137 16.6275 24.0843 16.6412 23.956 16.74C23.8177 16.8492 23.7738 17.047 23.8649 17.2038C24.3745 18.0768 25.1169 18.7724 26.0044 19.2396C26.6624 19.584 27.4048 19.7886 28.1472 19.8603C28.1405 20.0205 28.1405 20.1842 28.1337 20.3479C28.1168 20.7639 28.1202 21.1799 28.1168 21.596C28.1101 22.4383 28.1033 23.2805 28.1033 24.1194C28.1033 25.7938 28.1033 27.4681 28.0966 29.1424V31.5602C28.0561 31.5704 28.0156 31.5806 27.9751 31.5909C27.8469 31.6181 27.7186 31.6454 27.5904 31.6727C27.4723 31.6932 27.3576 31.7136 27.2395 31.7341C27.1888 31.7409 27.1348 31.7477 27.0842 31.7545C27.0842 31.7545 27.0797 31.7557 27.0707 31.7579C27.0336 31.7614 26.9965 31.7682 26.956 31.775C26.109 31.9148 25.2417 31.9148 24.3913 31.8227C23.5949 31.7341 22.7479 31.6625 21.992 31.3863C21.361 31.1544 20.8143 30.677 20.4499 30.1143C20.0551 29.5005 19.8391 28.7196 19.937 27.9864C19.9639 27.7648 20.0956 26.9702 20.73 26.3394C20.8717 26.1961 21.5162 25.7256 22.3936 25.5175C22.9538 25.388 23.5308 25.3607 24.0944 25.255C24.1821 25.2379 24.2935 25.1868 24.2766 25.0981C24.2631 25.0265 24.1754 25.0026 24.1045 24.9958C23.9189 24.9788 23.7367 24.9685 23.5511 24.9685C23.46 24.9651 23.3689 24.9685 23.2777 24.9685H23.2642C23.0921 24.9378 22.92 24.9174 22.7479 24.9003C22.4139 24.8594 22.0832 24.8048 21.7558 24.7196C21.2665 24.59 20.7941 24.3956 20.3858 24.0887C19.9943 23.7921 19.7007 23.4067 19.5016 22.9566C19.4071 22.7383 19.3295 22.5167 19.2722 22.2916C19.2182 21.9745 19.1676 21.6233 19.1237 21.2277C19.1203 21.2209 19.1203 21.214 19.1203 21.2038C19.1102 21.0776 19.1068 20.9481 19.1034 20.8185C19.1001 20.6105 19.1271 20.3854 19.0697 20.1842C19.0562 20.1126 19.0326 20.0478 18.9921 19.9762C18.9313 19.8807 18.7896 19.8773 18.7289 19.9762C18.5939 20.2081 18.6411 20.4945 18.6344 20.7503C18.6276 21.0094 18.6141 21.2652 18.5871 21.5244C18.5399 22.0018 18.4285 22.4485 18.2362 22.8884C18.0405 23.3385 17.7435 23.7239 17.3521 24.0171C16.9437 24.324 16.4713 24.5218 15.982 24.6514C15.6547 24.7366 15.324 24.7912 14.9899 24.8287C14.8178 24.8492 14.6457 24.8696 14.4769 24.8969C14.315 24.9242 14.1496 24.9344 13.9978 24.9992C13.9573 25.0163 13.9438 25.0538 13.9438 25.0947C13.9269 25.1834 14.0383 25.2345 14.126 25.2516C14.6895 25.3573 15.27 25.3845 15.8268 25.5141C16.6704 25.7153 17.3014 26.1484 17.4904 26.336C18.6951 27.5158 18.6344 29.5857 17.2812 30.6156C16.6333 31.11 15.8841 31.4169 15.1046 31.6318C14.7165 31.7409 13.8695 31.9387 12.7357 31.9967H11.3083C10.7717 31.9728 10.2352 31.9046 9.72897 31.7204C9.82008 31.3692 9.86733 30.9907 9.8977 30.6088C9.93144 30.2098 9.94157 29.8074 9.96181 29.4323C10.0023 28.6446 10.0361 27.8603 10.0631 27.0759C10.1137 25.4186 10.1272 23.7579 10.1035 22.1007C10.0934 21.2618 10.09 20.4195 9.99556 19.584C10.6941 19.3351 11.3724 18.9736 11.9089 18.4553C12.0507 18.3189 12.135 18.1893 12.27 18.012C12.378 17.8756 12.4691 17.7221 12.5602 17.5687C12.6581 17.3948 12.4354 17.2379 12.2936 17.3607C12.1654 17.4732 12.0304 17.5823 11.8921 17.6778C11.8246 17.7256 11.7571 17.7699 11.6896 17.8142L11.6761 17.821C11.6761 17.821 11.6896 17.8176 11.693 17.8176C11.6896 17.821 11.6761 17.8279 11.6525 17.8347C11.6457 17.8381 11.5613 17.8961 11.5512 17.9029C11.5377 17.9097 11.5242 17.9199 11.5209 17.9233C11.5006 17.937 11.477 17.954 11.4534 17.9677C11.1631 18.1655 10.8594 18.353 10.5456 18.5099C10.4714 18.5474 10.3938 18.5815 10.3161 18.619L10.279 18.6326C10.279 18.6326 10.2588 18.6429 10.2554 18.6463C10.2082 18.6633 10.1609 18.6838 10.1137 18.7008C9.94494 18.7656 9.77284 18.8236 9.60074 18.8713C9.43201 18.9191 9.26329 18.96 9.09118 18.9941C9.00345 19.0111 8.91233 19.0282 8.82459 19.0418C8.80772 19.0418 8.79085 19.0418 8.77398 19.0487C8.72673 19.0521 8.67949 19.0589 8.63225 19.0657C8.27117 19.1032 7.9101 19.1134 7.54902 19.093C7.46466 19.0896 7.38029 19.0828 7.29593 19.0725C7.25543 19.0691 7.21832 19.0657 7.17782 19.0623C7.1542 19.0589 7.13395 19.0555 7.10696 19.0521H7.09346C6.91461 19.0214 6.73238 18.9873 6.55353 18.9464C6.18571 18.8611 5.82463 18.7418 5.4703 18.5985C5.45343 18.5917 5.43993 18.5849 5.42306 18.5781C5.41631 18.5747 5.40956 18.5712 5.40281 18.5712C5.39944 18.5712 5.39606 18.5678 5.38932 18.5678C5.35894 18.5542 5.32857 18.5371 5.30158 18.5269C5.21721 18.486 5.12948 18.4451 5.04511 18.4042C4.87639 18.3189 4.70766 18.2268 4.54568 18.1279C4.38033 18.0325 4.21835 17.9267 4.06312 17.8176C3.98888 17.7665 3.91464 17.7153 3.8404 17.6608C3.82353 17.6471 3.80328 17.6335 3.77966 17.6164C3.76616 17.6028 3.6953 17.5516 3.6683 17.5312C3.66493 17.5312 3.6548 17.521 3.64805 17.5141C3.35447 17.2925 3.07776 17.0367 2.81792 16.7741C2.55808 16.5116 2.29149 16.2149 2.05527 15.908C2.05527 15.9046 2.04515 15.8944 2.0384 15.8875C2.03502 15.8841 2.03502 15.8807 2.03165 15.8773C2.00128 15.8398 1.97428 15.7989 1.94391 15.7614C1.88654 15.6795 1.82918 15.6011 1.77519 15.5227C1.66383 15.359 1.55921 15.1953 1.45798 15.0282C1.25551 14.694 1.07328 14.3496 0.907929 13.9915C0.870809 13.9097 0.833689 13.8244 0.796569 13.7426C0.78982 13.729 0.786445 13.7187 0.783071 13.7051C0.759449 13.6505 0.735827 13.5926 0.712206 13.5346C0.644715 13.3607 0.580599 13.1799 0.519857 13.0026C0.398374 12.6275 0.297137 12.2524 0.212774 11.8671C0.175654 11.6829 0.141909 11.4954 0.111538 11.3078C0.101414 11.2567 0.0946652 11.2089 0.0879161 11.1612C0.0879161 11.1544 0.0845416 11.1475 0.0845416 11.1373C0.0845416 11.1373 0.0845415 11.1237 0.081167 11.11C0.081167 11.1066 0.081167 11.1032 0.0777925 11.0896C0.0676689 10.9975 0.0575452 10.9088 0.0474216 10.8202C-0.0268182 10.0427 -0.0133201 9.26861 0.0777925 8.49111C0.0777925 8.47747 0.081167 8.46042 0.0845416 8.44337C0.0912906 8.39904 0.0946652 8.35812 0.104789 8.31379C0.118287 8.21149 0.13516 8.10919 0.155407 8.01029C0.189152 7.82615 0.229647 7.64542 0.27689 7.46809C0.361254 7.11686 0.469239 6.76903 0.594097 6.42803C0.624468 6.33937 0.658213 6.25411 0.691958 6.16886C0.705457 6.13135 0.722329 6.09384 0.735827 6.05633C0.739202 6.0461 0.7527 6.01882 0.756075 6.012C0.759449 6.00518 0.759449 6.00177 0.759449 6.00177C0.833689 5.83127 0.911303 5.66417 0.992292 5.50049C1.1509 5.17312 1.32975 4.85599 1.52209 4.54908C1.61996 4.39222 1.72119 4.24218 1.82918 4.08873C1.8798 4.02052 1.93041 3.94891 1.98103 3.88071C2.00465 3.84661 2.03165 3.81592 2.05527 3.78182C2.06877 3.76136 2.08564 3.7409 2.09914 3.72385C2.32523 3.4374 2.56145 3.1646 2.81454 2.90543C3.07101 2.64286 3.34097 2.39052 3.62106 2.15522C3.68855 2.10066 3.75604 2.0461 3.82353 1.99495C3.82353 1.98813 3.83365 1.98472 3.8404 1.9779C3.88765 1.9438 3.93152 1.9097 3.97876 1.8756C4.12049 1.76988 4.26897 1.66758 4.41407 1.56869C4.72791 1.36409 5.05524 1.17312 5.38932 1.00603C5.56142 0.91737 5.74027 0.821888 5.92249 0.753687C5.94274 0.743457 5.97311 0.733227 5.98661 0.729817C6.03048 0.709356 6.07772 0.692306 6.12496 0.671846C6.21945 0.637745 6.31394 0.603644 6.40843 0.569544C6.78637 0.433141 7.17107 0.32402 7.56252 0.235358C7.75149 0.191027 7.94384 0.153517 8.13619 0.122826C8.22055 0.105776 8.30829 0.102366 8.39265 0.0819053C8.38928 0.0819053 8.38591 0.0819053 8.38591 0.0853153C8.4129 0.0819053 8.44665 0.0750851 8.46014 0.0716751C8.51751 0.064855 8.57488 0.0580348 8.62887 0.0546248C9.42189 -0.0306267 10.2217 -0.0238066 11.0113 0.0750851C11.0282 0.0750851 11.0417 0.0784952 11.0585 0.0784952C11.1024 0.0853153 11.1429 0.0921354 11.1834 0.0989556C11.2914 0.116006 11.396 0.133056 11.5006 0.153517C11.6963 0.191027 11.8921 0.231948 12.0878 0.283099C12.4691 0.37858 12.847 0.497933 13.2149 0.637745C13.2992 0.671846 13.3836 0.705946 13.4713 0.740047C13.4848 0.746867 13.4983 0.753687 13.5118 0.760507L13.6637 0.828708C13.8392 0.90714 14.0113 0.995801 14.18 1.08446C14.5276 1.27543 14.8616 1.48685 15.1789 1.72214C15.216 1.74942 15.2531 1.78012 15.2902 1.8074C15.3003 1.81422 15.3071 1.82104 15.3138 1.82786C15.3982 1.89265 15.4758 1.96085 15.5568 2.02905C15.7053 2.15863 15.847 2.29503 15.9854 2.43826C16.117 2.57466 16.2452 2.71788 16.3633 2.86792C16.3802 2.88838 16.3971 2.90884 16.4106 2.92589C16.4173 2.93613 16.4308 2.95318 16.4409 2.96341C16.4544 2.98387 16.4679 3.00092 16.4713 3.00774C16.4949 3.03843 16.5152 3.06912 16.5354 3.09981C16.8155 3.45104 17.0483 3.81933 17.2373 4.20467C17.4533 4.63774 17.595 5.06741 17.7064 5.54141C17.7874 5.88242 17.7064 6.60194 18.0945 6.78608C18.3104 6.88838 18.4454 6.64286 18.4623 6.46213C18.4994 6.0461 18.4522 5.62666 18.4184 5.21746C18.3982 4.98557 18.3644 4.75028 18.3205 4.5218C18.2801 4.3172 18.1991 4.12283 18.1484 3.92163C18.1248 3.83297 18.0945 3.7409 18.0675 3.65224C18.0438 3.58745 18.0236 3.52607 17.9966 3.46468C17.9932 3.46468 17.9932 3.45445 17.9932 3.45104C17.9898 3.44763 17.9898 3.44422 17.9898 3.44081C17.9797 3.41012 17.9662 3.38284 17.9561 3.35215C17.8616 3.12368 17.7604 2.90884 17.6254 2.70083C17.5815 2.63263 17.5309 2.56443 17.4837 2.49623C17.5174 2.48941 17.5545 2.486 17.5883 2.47918C17.5984 2.47918 17.6254 2.47236 17.6389 2.47236C17.6625 2.46895 17.6828 2.46554 17.7064 2.46213C17.8279 2.44849 17.946 2.43144 18.0675 2.41098C18.0978 2.40757 18.1282 2.40416 18.1586 2.39734C18.1619 2.39734 18.1687 2.39734 18.1754 2.39393C18.2261 2.38711 18.2767 2.3837 18.3239 2.37688C18.5331 2.35642 18.7424 2.34278 18.9516 2.33937C19.1676 2.33595 19.3869 2.34278 19.5995 2.35983C19.7007 2.37006 19.7986 2.37688 19.8965 2.38711C19.9471 2.39393 19.9943 2.39734 20.0449 2.40416C20.0652 2.40757 20.0787 2.40757 20.0821 2.40757C20.1023 2.41098 20.1259 2.4178 20.1462 2.42121C20.5612 2.486 20.9696 2.5883 21.3644 2.73152C21.4589 2.76562 21.55 2.79972 21.6411 2.83723C21.6512 2.84064 21.6613 2.84746 21.6715 2.85087C21.6816 2.85428 21.7086 2.86792 21.7187 2.87133C21.7693 2.8952 21.8199 2.91908 21.8706 2.94295C22.0595 3.03161 22.2418 3.1305 22.4206 3.23962C22.5927 3.34192 22.7581 3.45104 22.9167 3.5704C22.9538 3.59768 22.9909 3.62496 23.028 3.65224C23.0415 3.66588 23.055 3.6727 23.0685 3.68634C23.1495 3.75113 23.2271 3.81592 23.3014 3.88412C23.5983 4.14329 23.8683 4.42973 24.1146 4.74005C24.1349 4.76392 24.1619 4.78779 24.1787 4.81848C24.1787 4.82189 24.1855 4.82871 24.1889 4.83553C24.2024 4.85258 24.2159 4.86963 24.2294 4.89009C24.2901 4.97193 24.3508 5.05718 24.4082 5.14243C24.5128 5.30271 24.6174 5.4698 24.7085 5.6403C24.8165 5.83127 24.911 6.02564 24.9988 6.22683C25.0055 6.24388 25.0156 6.26093 25.0224 6.28139C25.0291 6.29162 25.0291 6.29844 25.0325 6.30526C25.0494 6.353 25.0696 6.40075 25.0865 6.44849C25.127 6.55079 25.1641 6.65309 25.1945 6.75539C25.2653 6.96682 25.3227 7.18506 25.37 7.4033C25.3936 7.50902 25.4138 7.61473 25.4307 7.72385C25.4341 7.7409 25.4374 7.75795 25.4374 7.77841C25.1439 7.92504 24.857 8.09214 24.5837 8.27287C23.541 8.97193 22.6636 9.87901 22.1743 11.0555C22.1473 11.1237 22.1203 11.1987 22.1473 11.2635C22.181 11.3556 22.3025 11.3863 22.3936 11.3556C22.4847 11.3215 22.5556 11.2464 22.6197 11.1748C23.8413 9.8415 25.3632 8.73664 27.1078 8.28992C28.1067 8.03416 29.1798 8.00347 30.1551 8.33766C32.4329 9.11856 33.6511 11.6284 33.5363 13.9506V13.954Z" fill="#396039"/>
<path d="M24.8739 21.7391C23.2338 21.9165 23.0887 22.0631 22.9132 23.7204C22.7378 22.0631 22.5927 21.9165 20.9526 21.7391C22.5927 21.5618 22.7378 21.4152 22.9132 19.7579C23.0887 21.4152 23.2338 21.5618 24.8739 21.7391Z" fill="#FAF0E6"/>
<path d="M32.1966 16.8559C32.1966 16.8559 32.1865 16.873 32.1797 16.8866C32.1764 16.8934 32.173 16.8968 32.1696 16.9036C32.1696 16.9036 32.1663 16.9104 32.1629 16.9104C32.1629 16.9104 32.1595 16.9138 32.1562 16.9172C32.1562 16.9172 32.1528 16.9206 32.1494 16.924C32.1797 16.8764 32.1966 16.8559 32.1999 16.8525L32.1966 16.8559Z" fill="#FAF0E6"/>
<path d="M27.9277 18.7518H27.921C27.9042 18.7518 27.8907 18.745 27.8738 18.745C27.8503 18.7383 27.8469 18.7316 27.9311 18.7518H27.9277Z" fill="#FAF0E6"/>
<path d="M33.1046 12.624C33.0945 12.5934 33.0877 12.59 33.1147 12.6853C33.1147 12.6853 33.1147 12.6853 33.1147 12.6819C33.1113 12.6615 33.1046 12.6444 33.1046 12.624Z" fill="#FAF0E6"/>
<path d="M30.2494 8.46694C30.1922 8.45347 30.1753 8.44673 30.1821 8.44673C30.2023 8.45347 30.2259 8.46021 30.2461 8.46694H30.2494Z" fill="#FAF0E6"/>
<path d="M30.3101 18.3734C30.3101 18.3734 30.3067 18.3734 30.3034 18.3768C30.3034 18.3768 30.3 18.3768 30.2966 18.3802C30.2966 18.3802 30.2933 18.3801 30.2899 18.3835C30.2764 18.3903 30.2596 18.4004 30.2461 18.4037C30.2832 18.3835 30.3 18.3734 30.3067 18.3734H30.3101Z" fill="#FAF0E6"/>
<path d="M32.7975 15.7954C32.7975 15.7954 32.7874 15.826 32.7807 15.8431C32.7807 15.8499 32.7739 15.8567 32.7739 15.8635C32.7739 15.8635 32.7739 15.8669 32.7739 15.8703C32.7908 15.8226 32.7975 15.8022 32.8042 15.7954H32.7975Z" fill="#FAF0E6"/>
<path d="M46.2312 13.5243C45.9781 13.4868 45.7217 13.5311 45.4618 13.6539C45.1547 13.8142 44.8342 13.9267 44.5001 13.9915C44.166 14.0529 43.8353 14.0835 43.5012 14.0835C42.8972 14.0835 42.3336 13.9949 41.8173 13.8142C41.2977 13.6334 40.8488 13.3572 40.4675 12.9821C40.0862 12.607 39.7859 12.1398 39.5699 11.5806C39.3539 11.0179 39.2459 10.3598 39.2459 9.59932C39.2459 8.95141 39.3404 8.35806 39.5328 7.82268C39.7251 7.2873 40.0052 6.82353 40.3764 6.43137C40.7476 6.03921 41.193 5.73572 41.7195 5.5243C42.2425 5.31287 42.8398 5.20716 43.5046 5.20716C43.8623 5.20716 44.2031 5.24467 44.5305 5.31969C44.8578 5.39471 45.1682 5.50043 45.4652 5.63683C45.725 5.763 45.9815 5.81074 46.2346 5.78687C46.4877 5.763 46.6935 5.63683 46.8555 5.41176C47.0884 5.12532 47.1795 4.80818 47.1221 4.45695C47.0647 4.10571 46.8791 3.85337 46.5586 3.68968C46.103 3.45439 45.6137 3.27366 45.0974 3.14748C44.5777 3.02131 44.0479 2.95993 43.5046 2.95993C42.5429 2.95993 41.6554 3.12361 40.8387 3.45439C40.0255 3.78516 39.3168 4.24552 38.7195 4.83887C38.1222 5.43222 37.6599 6.13129 37.3326 6.94288C37.0052 7.75448 36.8433 8.63768 36.8433 9.59932C36.8433 10.7076 37.0221 11.6829 37.3798 12.5251C37.7375 13.3674 38.2268 14.0665 38.8511 14.6292C39.4754 15.1918 40.1841 15.6147 40.9804 15.9011C41.7768 16.1876 42.6171 16.3308 43.508 16.3308C43.8657 16.3308 44.2166 16.3035 44.5642 16.2455C44.9084 16.1876 45.2526 16.1091 45.5901 16.0034C45.9275 15.8977 46.2582 15.7647 46.5788 15.601C46.8859 15.451 47.0749 15.2123 47.1424 14.8815C47.2098 14.5507 47.1221 14.2302 46.8758 13.9199C46.7037 13.6948 46.4911 13.5652 46.238 13.5277L46.2312 13.5243Z" fill="#10310B"/>
<path d="M55.9093 6.61551C55.1501 6.1722 54.3031 5.95055 53.3649 5.95055C52.4268 5.95055 51.5798 6.1722 50.8205 6.61551C50.0613 7.05882 49.4572 7.66922 49.0084 8.44671C48.5596 9.22761 48.3335 10.1279 48.3335 11.1475C48.3335 12.1671 48.5596 13.0708 49.0084 13.8482C49.4572 14.6291 50.0646 15.2361 50.8205 15.6726C51.5798 16.1091 52.4268 16.3274 53.3649 16.3274C54.3031 16.3274 55.1501 16.1091 55.9093 15.6726C56.6686 15.2361 57.2727 14.6291 57.7215 13.8482C58.1703 13.0708 58.3964 12.1671 58.3964 11.1475C58.3964 10.1279 58.1703 9.2242 57.7215 8.44671C57.2727 7.66922 56.6686 7.05541 55.9093 6.61551ZM55.798 12.7877C55.5449 13.2549 55.2074 13.6198 54.7789 13.8823C54.3503 14.1449 53.8812 14.2745 53.3649 14.2745C52.8486 14.2745 52.3762 14.1449 51.951 13.8823C51.5258 13.6198 51.185 13.2549 50.9319 12.7877C50.6788 12.3205 50.5539 11.7749 50.5539 11.1509C50.5539 10.5268 50.6788 9.96419 50.9319 9.49701C51.185 9.02983 51.5224 8.66495 51.951 8.40238C52.3796 8.1398 52.8486 8.01022 53.3649 8.01022C53.8812 8.01022 54.3537 8.1398 54.7789 8.40238C55.2041 8.66495 55.5449 9.02983 55.798 9.49701C56.0511 9.96419 56.1759 10.5166 56.1759 11.1509C56.1759 11.7852 56.0477 12.3205 55.798 12.7877Z" fill="#10310B"/>
<path d="M65.6244 16.0955C66.0259 15.9386 66.3735 15.7511 66.6705 15.526C66.8898 15.3589 67.0754 15.1918 67.2273 15.0213C67.2306 15.3384 67.3352 15.601 67.5411 15.8159C67.7503 16.0341 68.0169 16.1432 68.3375 16.1432C68.6581 16.1432 68.9247 16.0341 69.1339 15.8159C69.3431 15.5976 69.4477 15.3282 69.4477 15.0009V3.44757C69.4477 3.10997 69.3431 2.83717 69.1339 2.62574C68.9247 2.41432 68.6581 2.30861 68.3375 2.30861C68.0169 2.30861 67.7503 2.41773 67.5411 2.63597C67.3319 2.85422 67.2273 3.12702 67.2273 3.45098V7.12361C67.1193 7.02131 67.0012 6.91901 66.8662 6.81671C66.5389 6.56777 66.1542 6.36317 65.7087 6.19949C65.2633 6.03921 64.7773 5.95737 64.2475 5.95737C63.4208 5.95737 62.6683 6.17903 61.99 6.62233C61.3117 7.06564 60.7718 7.67604 60.3702 8.45354C59.9686 9.23444 59.7695 10.1347 59.7695 11.1543C59.7695 12.1739 59.9686 13.0571 60.3702 13.838C60.7718 14.6189 61.3184 15.2293 62.0069 15.6692C62.6986 16.1125 63.468 16.3342 64.3184 16.3342C64.7875 16.3342 65.2228 16.2558 65.6244 16.0989V16.0955ZM62.2363 12.74C62.0068 12.266 61.8955 11.7374 61.8955 11.1509C61.8955 10.5644 62.0102 10.0153 62.2363 9.54135C62.4658 9.06735 62.783 8.69224 63.1879 8.41944C63.5963 8.14663 64.0653 8.00682 64.5951 8.00682C65.1249 8.00682 65.6142 8.14322 66.0192 8.41944C66.4275 8.69224 66.7447 9.06735 66.9708 9.54135C67.2003 10.0153 67.3116 10.5507 67.3116 11.1509C67.3116 11.7511 67.1969 12.266 66.9708 12.74C66.7413 13.214 66.4241 13.5891 66.0192 13.8619C65.6109 14.1347 65.1384 14.2745 64.5951 14.2745C64.0518 14.2745 63.5963 14.1381 63.1879 13.8619C62.7796 13.5891 62.4624 13.214 62.2363 12.74Z" fill="#10310B"/>
<path d="M78.1981 16.0205C78.7785 15.8159 79.2273 15.5737 79.5479 15.3009C79.8921 15.0281 80.0676 14.7212 80.0676 14.3836C80.0676 14.1347 79.9765 13.9165 79.801 13.7289C79.6221 13.5413 79.396 13.4493 79.1261 13.4493C78.927 13.4493 78.7178 13.5038 78.495 13.6164C78.3601 13.6914 78.2082 13.7835 78.0429 13.8858C77.8775 13.9915 77.6582 14.0835 77.3848 14.1586C77.1149 14.2336 76.7504 14.2711 76.2915 14.2711C75.7988 14.2711 75.3331 14.1483 74.8944 13.9062C74.4557 13.6641 74.098 13.3095 73.8213 12.8389C73.6593 12.5661 73.5513 12.2558 73.4838 11.9147H79.585C79.882 11.9147 80.1418 11.8227 80.3612 11.6351C80.5839 11.4476 80.6986 11.2055 80.7121 10.9054C80.7121 10.2336 80.5839 9.59591 80.3342 8.99915C80.0811 8.40239 79.7402 7.87383 79.3083 7.42029C78.8764 6.96675 78.3803 6.60529 77.8201 6.34612C77.26 6.08355 76.6627 5.95396 76.035 5.95396C75.2217 5.95396 74.449 6.16539 73.7234 6.58824C72.9945 7.01108 72.4074 7.62148 71.9552 8.41262C71.5064 9.20375 71.2803 10.162 71.2803 11.2839C71.2803 12.2455 71.4861 13.1049 71.9012 13.8653C72.3129 14.6257 72.9068 15.2293 73.6762 15.6692C74.4456 16.1125 75.3567 16.3342 76.4062 16.3342C77.0237 16.3342 77.621 16.2319 78.2015 16.0273L78.1981 16.0205ZM74.1655 8.66155C74.3983 8.42626 74.6784 8.25575 74.999 8.15686C75.3196 8.05797 75.6638 8.00682 76.035 8.00682C76.4062 8.00682 76.7774 8.09207 77.1182 8.25916C77.4557 8.42626 77.7425 8.65473 77.9686 8.94118C78.1981 9.22762 78.3229 9.55158 78.3466 9.91304V10.0426H73.5007C73.5311 9.88917 73.5648 9.74254 73.6087 9.61296C73.7437 9.21398 73.9293 8.89685 74.1655 8.65814V8.66155Z" fill="#10310B"/>
<path d="M88.0419 4.38192L89.8912 5.37425C89.9654 5.41176 90.0397 5.43904 90.1139 5.4595C90.1881 5.47655 90.2556 5.48678 90.3164 5.48678C90.5492 5.48678 90.7382 5.4254 90.8799 5.29923C91.0216 5.17306 91.0925 5.01278 91.0925 4.81159C91.0925 4.63768 91.0048 4.46718 90.8327 4.3069L89.2399 2.88491C89.115 2.77238 88.9767 2.67689 88.8248 2.59505C88.6696 2.51321 88.5076 2.47229 88.3355 2.47229C88.1263 2.47229 87.9103 2.55413 87.6876 2.7144C87.4649 2.87809 87.3535 3.09974 87.3535 3.38619C87.3535 3.57374 87.4109 3.75447 87.529 3.92839C87.6471 4.1023 87.8158 4.25234 88.0386 4.37851L88.0419 4.38192Z" fill="#10310B"/>
<path d="M94.6866 6.27101C94.4774 6.05958 94.2108 5.95387 93.8902 5.95387C93.5696 5.95387 93.303 6.06299 93.0938 6.28124C92.8846 6.49948 92.78 6.76888 92.78 7.09283V7.12011C92.672 7.01781 92.5539 6.91551 92.4189 6.81321C92.0916 6.56427 91.7069 6.35967 91.2615 6.19599C90.816 6.03571 90.3301 5.95387 89.8003 5.95387C88.9735 5.95387 88.221 6.17553 87.5427 6.61883C86.8644 7.06214 86.3245 7.67254 85.9229 8.45004C85.5214 9.23094 85.3223 10.1312 85.3223 11.1508C85.3223 12.1704 85.5214 13.0536 85.9229 13.8345C86.3245 14.6154 86.8712 15.2258 87.5596 15.6657C88.2514 16.109 89.0208 16.3307 89.8711 16.3307C90.3402 16.3307 90.7755 16.2523 91.1771 16.0954C91.5787 15.9385 91.9262 15.751 92.2232 15.5259C92.4425 15.3588 92.6281 15.1917 92.78 15.0212C92.7834 15.3384 92.888 15.6009 93.0938 15.8158C93.303 16.034 93.5696 16.1431 93.8902 16.1431C94.2108 16.1431 94.4774 16.034 94.6866 15.8158C94.8958 15.5975 95.0004 15.3281 95.0004 15.0008V7.08942C95.0004 6.75183 94.8958 6.47902 94.6866 6.2676V6.27101ZM92.5303 12.7399C92.3008 13.2139 91.9836 13.589 91.5787 13.8618C91.1703 14.1346 90.6979 14.2744 90.1546 14.2744C89.6113 14.2744 89.1557 14.138 88.7474 13.8618C88.3391 13.589 88.0219 13.2139 87.7958 12.7399C87.5663 12.2659 87.455 11.7373 87.455 11.1508C87.455 10.5643 87.5697 10.0153 87.7958 9.54126C88.0253 9.06726 88.3425 8.69215 88.7474 8.41935C89.1557 8.14654 89.6248 8.00673 90.1546 8.00673C90.6844 8.00673 91.1737 8.14313 91.5787 8.41935C91.987 8.69215 92.3042 9.06726 92.5303 9.54126C92.7598 10.0153 92.8711 10.5506 92.8711 11.1508C92.8711 11.751 92.7564 12.2659 92.5303 12.7399Z" fill="#10310B"/>
<path d="M46.2312 28.6036C45.9781 28.5661 45.7217 28.6104 45.4618 28.7332C45.1547 28.8968 44.8342 29.006 44.5001 29.0708C44.166 29.1321 43.8353 29.1628 43.5012 29.1628C42.8972 29.1628 42.3336 29.0742 41.8173 28.8934C41.2977 28.7127 40.8488 28.4365 40.4675 28.0614C40.0862 27.6863 39.7859 27.2191 39.5699 26.6598C39.3539 26.0972 39.2459 25.439 39.2459 24.6786C39.2459 24.0307 39.3404 23.4373 39.5328 22.902C39.7251 22.3666 40.0052 21.9028 40.3764 21.5107C40.7476 21.1185 41.193 20.815 41.7195 20.6036C42.2425 20.3922 42.8398 20.2864 43.5046 20.2864C43.8623 20.2864 44.2031 20.324 44.5305 20.399C44.8578 20.474 45.1682 20.5797 45.4652 20.7161C45.725 20.8423 45.9815 20.89 46.2346 20.8662C46.4877 20.8423 46.6935 20.7161 46.8555 20.491C47.0884 20.2046 47.1795 19.8875 47.1221 19.5362C47.0647 19.185 46.8791 18.9327 46.5586 18.769C46.103 18.5337 45.6137 18.3529 45.0974 18.2268C44.5777 18.1006 44.0479 18.0392 43.5046 18.0392C42.5429 18.0392 41.6554 18.2029 40.8387 18.5337C40.0255 18.8644 39.3168 19.3248 38.7195 19.9182C38.1222 20.5115 37.6599 21.2106 37.3326 22.0222C37.0052 22.8338 36.8433 23.717 36.8433 24.6786C36.8433 25.7869 37.0221 26.7621 37.3798 27.6044C37.7375 28.4467 38.2268 29.1458 38.8511 29.7084C39.4754 30.2677 40.1841 30.6939 40.9804 30.9804C41.7768 31.2668 42.6171 31.4101 43.508 31.4101C43.8657 31.4101 44.2166 31.3828 44.5642 31.3248C44.9084 31.2668 45.2526 31.1884 45.5901 31.0827C45.9275 30.977 46.2582 30.844 46.5788 30.6803C46.8859 30.5303 47.0749 30.2916 47.1424 29.9608C47.2098 29.63 47.1221 29.3095 46.8758 28.9991C46.7037 28.7741 46.4911 28.6445 46.238 28.607L46.2312 28.6036Z" fill="#10310B"/>
<path d="M55.8083 21.2174C55.4877 21.2174 55.2211 21.3265 55.0119 21.5448C54.8027 21.763 54.6981 22.0358 54.6981 22.3598V27.11C54.6981 27.8704 54.5327 28.4331 54.1986 28.8014C53.8646 29.1697 53.3584 29.3538 52.6801 29.3538C52.0018 29.3538 51.5159 29.1697 51.1818 28.8014C50.8477 28.4331 50.6824 27.8704 50.6824 27.11V22.3598C50.6824 22.0358 50.5777 21.763 50.3685 21.5448C50.1593 21.3265 49.8927 21.2174 49.5721 21.2174C49.2516 21.2174 48.985 21.3265 48.7757 21.5448C48.5665 21.763 48.4619 22.0358 48.4619 22.3598V27.11C48.4619 28.4331 48.823 29.48 49.5451 30.2506C50.2673 31.0247 51.3134 31.4101 52.6801 31.4101C54.0468 31.4101 55.0963 31.0247 55.8252 30.2506C56.5541 29.4766 56.9185 28.4297 56.9185 27.11V22.3598C56.9185 22.0358 56.8139 21.763 56.6047 21.5448C56.3955 21.3265 56.1289 21.2174 55.8083 21.2174Z" fill="#10310B"/>
<path d="M59.8612 21.2174C59.5406 21.2174 59.274 21.3265 59.0648 21.5448C58.8556 21.763 58.751 22.0358 58.751 22.3598V30.0835C58.751 30.4075 58.8556 30.6803 59.0648 30.8951C59.274 31.1134 59.5406 31.2225 59.8612 31.2225C60.1818 31.2225 60.4484 31.1134 60.6576 30.8951C60.8668 30.6769 60.9714 30.4075 60.9714 30.0835V22.3598C60.9714 22.0358 60.8668 21.763 60.6576 21.5448C60.4484 21.3265 60.1818 21.2174 59.8612 21.2174Z" fill="#10310B"/>
<path d="M59.861 17.7766C59.4661 17.7766 59.1725 17.8414 58.9802 17.9744C58.7878 18.104 58.6934 18.3529 58.6934 18.7144V19.0691C58.6934 19.4169 58.7777 19.6624 58.9532 19.7988C59.1253 19.9352 59.4223 20.0034 59.8407 20.0034C60.2591 20.0034 60.5629 19.9386 60.7485 19.8056C60.9341 19.676 61.0252 19.4271 61.0252 19.0656V18.711C61.0252 18.3632 60.9374 18.1176 60.7653 17.9812C60.5932 17.8448 60.2895 17.7766 59.8576 17.7766H59.861Z" fill="#10310B"/>
<path d="M68.797 26.1893C68.4764 25.9642 68.1255 25.7835 67.7408 25.6471C67.3561 25.5107 66.9815 25.3913 66.6137 25.2924C66.256 25.1935 65.9185 25.0912 65.6047 24.9821C65.2909 24.8764 65.0411 24.74 64.8555 24.5695C64.6699 24.4024 64.5788 24.1739 64.5788 23.8875C64.5788 23.5772 64.6598 23.3487 64.8184 23.2055C64.9804 23.0622 65.166 22.9702 65.382 22.9258C65.5979 22.8815 65.797 22.861 65.9826 22.861C66.4382 22.861 66.8431 22.9429 67.1941 23.1032C67.545 23.2668 67.8251 23.4851 68.0377 23.7579C68.1963 23.9079 68.4022 23.9932 68.6485 24.0102C68.8949 24.0307 69.1108 23.9625 69.2964 23.8124C69.5563 23.601 69.6744 23.3623 69.6474 23.1032C69.6204 22.844 69.5428 22.6155 69.4078 22.4314C69.1479 22.0938 68.8274 21.8244 68.446 21.6164C68.0647 21.4118 67.6632 21.2617 67.2447 21.1662C66.8263 21.0742 66.4247 21.0264 66.0434 21.0264C65.4393 21.0264 64.8623 21.1458 64.3122 21.3811C63.7622 21.6198 63.3167 21.954 62.9692 22.3905C62.625 22.8269 62.4495 23.3555 62.4495 23.9795C62.4495 24.5286 62.5541 24.9821 62.7633 25.3436C62.9725 25.705 63.2459 25.9949 63.5766 26.2131C63.9107 26.4314 64.2751 26.6087 64.6767 26.7451C65.0783 26.8815 65.4697 27.0077 65.851 27.1202C66.2222 27.2191 66.5563 27.3248 66.86 27.4373C67.1637 27.5499 67.4067 27.6863 67.5923 27.85C67.7779 28.0136 67.869 28.2319 67.869 28.5047C67.869 28.8286 67.7846 29.0673 67.6193 29.2242C67.4539 29.3811 67.2582 29.48 67.0355 29.5243C66.8128 29.5686 66.6103 29.5959 66.4247 29.6095C65.8342 29.6095 65.3381 29.5107 64.9433 29.3095C64.5485 29.1117 64.1705 28.8286 63.8128 28.4672C63.6036 28.2558 63.3876 28.1398 63.1649 28.1228C62.9422 28.1057 62.733 28.1569 62.5372 28.283C62.2301 28.4808 62.0682 28.7195 62.0547 28.9923C62.0412 29.2651 62.0985 29.4902 62.22 29.6641C62.7026 30.312 63.3066 30.7656 64.0321 31.0213C64.761 31.2771 65.4866 31.4032 66.2155 31.4032C66.7959 31.4032 67.3628 31.2873 67.9162 31.0588C68.473 30.8269 68.9354 30.4893 69.3032 30.0392C69.6744 29.5891 69.86 29.0469 69.86 28.4126C69.86 27.8636 69.7621 27.4135 69.563 27.0554C69.3639 26.7008 69.1075 26.4109 68.7869 26.1858L68.797 26.1893Z" fill="#10310B"/>
<path d="M72.2589 17.7766C71.8641 17.7766 71.5705 17.8414 71.3816 17.9744C71.1892 18.104 71.0947 18.3529 71.0947 18.7144V19.0691C71.0947 19.4169 71.1825 19.6624 71.3546 19.7988C71.5267 19.9352 71.8236 20.0034 72.2421 20.0034C72.6605 20.0034 72.9642 19.9386 73.1498 19.8056C73.3354 19.676 73.4265 19.4271 73.4265 19.0656V18.711C73.4265 18.3632 73.3388 18.1176 73.1667 17.9812C72.9946 17.8448 72.6909 17.7766 72.2589 17.7766Z" fill="#10310B"/>
<path d="M72.2587 21.2173C71.9381 21.2173 71.6715 21.3264 71.4623 21.5447C71.2531 21.7629 71.1484 22.0357 71.1484 22.3597V30.0835C71.1484 30.4074 71.2531 30.6802 71.4623 30.895C71.6715 31.1133 71.9381 31.2224 72.2587 31.2224C72.5792 31.2224 72.8458 31.1133 73.0551 30.895C73.2643 30.6768 73.3689 30.4074 73.3689 30.0835V22.3597C73.3689 22.0357 73.2643 21.7629 73.0551 21.5447C72.8458 21.3264 72.5792 21.2173 72.2587 21.2173Z" fill="#10310B"/>
<path d="M82.5751 21.6095C82.0993 21.2242 81.4075 21.0298 80.493 21.0298C80.0745 21.0298 79.6865 21.0946 79.3288 21.2276C78.9711 21.3572 78.6505 21.5311 78.367 21.7425C78.0836 21.954 77.8372 22.1824 77.628 22.4245C77.5504 22.5132 77.4896 22.5985 77.4255 22.6837V22.3598C77.4255 22.0358 77.3209 21.763 77.1117 21.5448C76.9025 21.3265 76.6359 21.2174 76.3153 21.2174C75.9947 21.2174 75.7281 21.3265 75.5189 21.5448C75.3097 21.763 75.2051 22.0358 75.2051 22.3598V30.0835C75.2051 30.4075 75.3097 30.6803 75.5189 30.8951C75.7281 31.1134 75.9947 31.2225 76.3153 31.2225C76.6359 31.2225 76.9025 31.1134 77.1117 30.8951C77.3209 30.6769 77.4255 30.4075 77.4255 30.0835V25.2958C77.4255 24.8832 77.5133 24.5149 77.6921 24.1841C77.871 23.8534 78.1308 23.5874 78.4683 23.3896C78.8057 23.1918 79.2242 23.0895 79.7168 23.0895C80.2095 23.0895 80.6111 23.1884 80.8844 23.3896C81.1544 23.5908 81.3434 23.8534 81.448 24.1841C81.5526 24.5149 81.6066 24.8866 81.6066 25.2958V30.0835C81.6066 30.4075 81.7112 30.6803 81.9204 30.8951C82.1296 31.1134 82.3962 31.2225 82.7168 31.2225C83.0374 31.2225 83.304 31.1134 83.5132 30.8951C83.7224 30.6769 83.827 30.4075 83.827 30.0835V25.2958C83.827 24.5115 83.7359 23.7954 83.5604 23.1543C83.3816 22.5132 83.0543 21.9983 82.5784 21.613L82.5751 21.6095Z" fill="#10310B"/>
<path d="M93.3532 22.4962C92.9213 22.0426 92.4252 21.6812 91.8651 21.422C91.3049 21.1594 90.7076 21.0298 90.0799 21.0298C89.2667 21.0298 88.4939 21.2413 87.7684 21.6641C87.0395 22.0869 86.4523 22.6973 86.0001 23.4885C85.5513 24.2796 85.3252 25.2378 85.3252 26.3598C85.3252 27.3214 85.531 28.1807 85.9461 28.9412C86.3578 29.7016 86.9517 30.3052 87.7211 30.7451C88.4905 31.1884 89.4016 31.4101 90.4511 31.4101C91.0687 31.4101 91.6659 31.3078 92.2464 31.0997C92.8268 30.8951 93.2756 30.653 93.5962 30.3802C93.9404 30.1074 94.1159 29.8005 94.1159 29.4629C94.1159 29.214 94.0247 28.9957 93.8493 28.8082C93.6704 28.6206 93.4443 28.5286 93.1744 28.5286C92.9753 28.5286 92.766 28.5865 92.5433 28.6956C92.4083 28.7707 92.2565 28.8627 92.0911 28.9684C91.9258 29.0742 91.7064 29.1662 91.4331 29.2378C91.1631 29.3129 90.7987 29.3504 90.3398 29.3504C89.8471 29.3504 89.3814 29.2276 88.9427 28.9855C88.504 28.7434 88.1463 28.3887 87.8696 27.9182C87.7076 27.6453 87.5996 27.335 87.5321 26.994H93.6333C93.9303 26.994 94.1901 26.902 94.4094 26.7144C94.6322 26.5268 94.7469 26.2847 94.7604 25.9846C94.7604 25.3129 94.6322 24.6752 94.3825 24.0784C94.1294 23.4817 93.7885 22.9531 93.3566 22.4996L93.3532 22.4962ZM88.2071 23.7408C88.4399 23.5055 88.72 23.335 89.0406 23.2361C89.3611 23.1372 89.7053 23.0861 90.0765 23.0861C90.4477 23.0861 90.8189 23.1714 91.1598 23.3384C91.4972 23.5055 91.7841 23.734 92.0102 24.0205C92.2396 24.3069 92.3645 24.6309 92.3881 24.9923V25.1219H87.5423C87.5726 24.9685 87.6064 24.8218 87.6502 24.6922C87.7852 24.2933 87.9708 23.9761 88.2071 23.7374V23.7408Z" fill="#10310B"/>
</g>
<defs>
<clipPath id="clip0_4352_4189">
<rect width="95" height="32" fill="white"/>
</clipPath>
</defs>
</svg>
