<svg width="52" height="48" viewBox="0 0 52 48" fill="none" xmlns="http://www.w3.org/2000/svg">
<path d="M26 41.675C25.5333 41.675 25.0583 41.5916 24.575 41.425C24.0917 41.2583 23.6667 40.9916 23.3 40.625L19.85 37.475C16.3167 34.2416 13.125 31.0333 10.275 27.85C7.425 24.6666 6 21.1583 6 17.325C6 14.1916 7.05 11.575 9.15 9.47495C11.25 7.37495 13.8667 6.32495 17 6.32495C18.7667 6.32495 20.4333 6.69995 22 7.44995C23.5667 8.19995 24.9 9.22495 26 10.525C27.1 9.22495 28.4333 8.19995 30 7.44995C31.5667 6.69995 33.2333 6.32495 35 6.32495C38.1333 6.32495 40.75 7.37495 42.85 9.47495C44.95 11.575 46 14.1916 46 17.325C46 21.1583 44.5833 24.675 41.75 27.875C38.9167 31.075 35.7 34.2916 32.1 37.525L28.7 40.625C28.3333 40.9916 27.9083 41.2583 27.425 41.425C26.9417 41.5916 26.4667 41.675 26 41.675ZM24.1 14.525C23.1333 13.1583 22.1 12.1166 21 11.4C19.9 10.6833 18.5667 10.325 17 10.325C15 10.325 13.3333 10.9916 12 12.325C10.6667 13.6583 10 15.325 10 17.325C10 19.0583 10.6167 20.9 11.85 22.85C13.0833 24.8 14.5583 26.6916 16.275 28.525C17.9917 30.3583 19.7583 32.075 21.575 33.675C23.3917 35.275 24.8667 36.5916 26 37.625C27.1333 36.5916 28.6083 35.275 30.425 33.675C32.2417 32.075 34.0083 30.3583 35.725 28.525C37.4417 26.6916 38.9167 24.8 40.15 22.85C41.3833 20.9 42 19.0583 42 17.325C42 15.325 41.3333 13.6583 40 12.325C38.6667 10.9916 37 10.325 35 10.325C33.4333 10.325 32.1 10.6833 31 11.4C29.9 12.1166 28.8667 13.1583 27.9 14.525C27.6667 14.8583 27.3833 15.1083 27.05 15.275C26.7167 15.4416 26.3667 15.525 26 15.525C25.6333 15.525 25.2833 15.4416 24.95 15.275C24.6167 15.1083 24.3333 14.8583 24.1 14.525Z" fill="#008000"/>
<path d="M42.8727 13.5789C44.4107 20.7018 31.6175 38 25.9545 38C20.2915 38 10.5736 28.3333 8.52298 19.6842C6.29206 10.2744 11.5754 9 17.2384 9C29.0301 14.0877 38.7711 4.42104 42.8727 13.5789Z" fill="#008000"/>
</svg>
