<svg width="52" height="48" viewBox="0 0 52 48" fill="none" xmlns="http://www.w3.org/2000/svg">
<path d="M26 42.35C25.5333 42.35 25.0583 42.2667 24.575 42.1C24.0917 41.9333 23.6667 41.6667 23.3 41.3L19.85 38.15C16.3167 34.9167 13.125 31.7083 10.275 28.525C7.425 25.3417 6 21.8333 6 18C6 14.8667 7.05 12.25 9.15 10.15C11.25 8.05 13.8667 7 17 7C18.7667 7 20.4333 7.375 22 8.125C23.5667 8.875 24.9 9.9 26 11.2C27.1 9.9 28.4333 8.875 30 8.125C31.5667 7.375 33.2333 7 35 7C38.1333 7 40.75 8.05 42.85 10.15C44.95 12.25 46 14.8667 46 18C46 21.8333 44.5833 25.35 41.75 28.55C38.9167 31.75 35.7 34.9667 32.1 38.2L28.7 41.3C28.3333 41.6667 27.9083 41.9333 27.425 42.1C26.9417 42.2667 26.4667 42.35 26 42.35ZM24.1 15.2C23.1333 13.8333 22.1 12.7917 21 12.075C19.9 11.3583 18.5667 11 17 11C15 11 13.3333 11.6667 12 13C10.6667 14.3333 10 16 10 18C10 19.7333 10.6167 21.575 11.85 23.525C13.0833 25.475 14.5583 27.3667 16.275 29.2C17.9917 31.0333 19.7583 32.75 21.575 34.35C23.3917 35.95 24.8667 37.2667 26 38.3C27.1333 37.2667 28.6083 35.95 30.425 34.35C32.2417 32.75 34.0083 31.0333 35.725 29.2C37.4417 27.3667 38.9167 25.475 40.15 23.525C41.3833 21.575 42 19.7333 42 18C42 16 41.3333 14.3333 40 13C38.6667 11.6667 37 11 35 11C33.4333 11 32.1 11.3583 31 12.075C29.9 12.7917 28.8667 13.8333 27.9 15.2C27.6667 15.5333 27.3833 15.7833 27.05 15.95C26.7167 16.1167 26.3667 16.2 26 16.2C25.6333 16.2 25.2833 16.1167 24.95 15.95C24.6167 15.7833 24.3333 15.5333 24.1 15.2Z" fill="#008000"/>
</svg>
